<svg width="16" height="21" viewBox="0 0 16 21" fill="none" xmlns="http://www.w3.org/2000/svg">
<path fill-rule="evenodd" clip-rule="evenodd" d="M0.568822 0.0417129C0.39214 0.0959355 0.18815 0.275748 0.0898647 0.463805L0 0.635742V10.5V20.3643L0.0898647 20.5362C0.189835 20.7275 0.371288 20.8827 0.577404 20.9533C0.654075 20.9796 0.965574 21 1.28918 21H1.86466V10.5V0L1.27318 0.00352734C0.94789 0.00545508 0.630897 0.0226406 0.568822 0.0417129ZM3.14787 10.5V21H8H12.8521V10.5V0H8H3.14787V10.5ZM14.1353 10.5V21H14.7108C15.0344 21 15.3459 20.9796 15.4226 20.9533C15.6287 20.8827 15.8102 20.7275 15.9101 20.5362L16 20.3643V10.5V0.635742L15.9101 0.463805C15.8102 0.272508 15.6287 0.117264 15.4226 0.0466758C15.3459 0.0204258 15.0344 0 14.7108 0H14.1353V10.5ZM8.28263 1.81506C8.35637 1.86592 8.45378 1.97203 8.49909 2.0509C8.57668 2.18601 8.58145 2.25853 8.58145 3.30176C8.58145 4.34499 8.57668 4.41751 8.49909 4.55261C8.2408 5.00227 7.59447 4.99205 7.38238 4.53493C7.32299 4.40688 7.31617 4.2502 7.32652 3.25069C7.33794 2.15049 7.34131 2.10804 7.42729 1.98475C7.61155 1.72056 8.02615 1.63829 8.28263 1.81506ZM8.1264 6.48149C8.33255 6.54011 8.54869 6.79625 8.58141 7.02073C8.59561 7.11834 8.60146 7.64121 8.59437 8.18262C8.58334 9.0229 8.57127 9.18602 8.51188 9.29705C8.34442 9.61013 7.90893 9.736 7.64006 9.54905C7.56339 9.49577 7.45885 9.38868 7.40776 9.31116C7.31533 9.17085 7.31493 9.16445 7.3266 8.01281C7.33995 6.69867 7.33698 6.71102 7.68 6.53174C7.87922 6.42764 7.9204 6.42301 8.1264 6.48149ZM8.23816 11.278C8.32329 11.3224 8.43533 11.4286 8.48718 11.5139C8.57821 11.6636 8.58189 11.7029 8.59437 12.6533C8.61004 13.8505 8.59894 13.9436 8.41548 14.1513C8.17395 14.4247 7.84541 14.462 7.56888 14.2474C7.32443 14.0576 7.3183 14.0222 7.3183 12.7969C7.3183 11.6106 7.32491 11.5652 7.52501 11.374C7.72307 11.1849 7.9907 11.1489 8.23816 11.278ZM8.28263 16.0475C8.35637 16.0983 8.45378 16.2045 8.49909 16.2833C8.57668 16.4184 8.58145 16.4909 8.58145 17.5342C8.58145 18.5774 8.57668 18.6499 8.49909 18.785C8.2408 19.2347 7.59447 19.2245 7.38238 18.7674C7.32299 18.6393 7.31617 18.4826 7.32652 17.4831C7.33794 16.3829 7.34131 16.3405 7.42729 16.2172C7.61155 15.953 8.02615 15.8707 8.28263 16.0475Z" fill="#1E321E"/>
</svg>
