<svg width="23" height="23" viewBox="0 0 23 23" fill="none" xmlns="http://www.w3.org/2000/svg">
<path fill-rule="evenodd" clip-rule="evenodd" d="M17.7273 0.184605C17.6894 0.286158 17.6164 0.483547 17.5651 0.623273L17.4717 0.877335L17.0917 0.794103C16.8827 0.748323 16.4419 0.690524 16.1123 0.665631C14.4333 0.53878 12.8568 0.96831 11.3688 1.95805C10.5706 2.48895 9.55924 3.62188 9.06133 4.54283C8.86237 4.91087 8.35547 6.14661 8.35547 6.2637C8.35547 6.2718 8.45147 6.29214 8.56885 6.30894C8.94996 6.3634 9.98398 6.60401 10.4443 6.74531C11.0314 6.9255 11.7565 7.22395 12.3984 7.54967L12.915 7.81179L13.4766 7.83471C14.0074 7.8564 14.7638 7.96907 14.8338 8.03687C14.8514 8.05393 14.1625 10.0022 13.3028 12.3662L11.7399 16.6645L10.845 16.6944C7.7974 16.7964 4.79182 17.6539 2.22772 19.153L1.9174 19.3344L2.19178 19.4732C2.34272 19.5495 2.69581 19.7633 2.97639 19.9481C3.76418 20.4673 3.89571 20.4641 4.75305 19.9044C5.76496 19.244 6.3829 19.0366 7.45703 18.9968C8.19326 18.9695 8.71354 19.0376 9.29496 19.2375C9.7631 19.3984 10.0481 19.5478 10.6435 19.9447C11.4221 20.4635 11.5573 20.4617 12.3851 19.9217C13.4047 19.2565 14.0571 19.0338 15.1017 18.9946C16.3639 18.9471 17.1696 19.1882 18.341 19.9639C19.0809 20.4538 19.2523 20.4541 19.9835 19.9668C20.2466 19.7914 20.6016 19.5773 20.7723 19.4912L21.0828 19.3345L20.7723 19.1526C20.2813 18.865 18.9367 18.2114 18.3955 17.9974C16.9311 17.4183 15.3596 17.0167 13.8135 16.8263C13.291 16.762 13.1855 16.7365 13.1903 16.6762C13.1934 16.6362 13.8588 14.7803 14.6689 12.552L16.1419 8.50043L16.3703 8.61575C16.6996 8.78204 17.1828 9.09917 17.5195 9.36993C17.7942 9.59082 17.8435 9.61202 18.3506 9.72735C19.4818 9.9846 20.3881 10.3258 21.4727 10.9028C21.8309 11.0933 22.1502 11.2707 22.1821 11.2969C22.2167 11.3252 22.2556 11.3279 22.2783 11.3036C22.347 11.2301 22.728 10.0544 22.8172 9.64096C23.186 7.9296 22.9664 6.25631 22.1632 4.65681C21.5032 3.34265 20.2985 2.12789 19.0075 1.4749L18.7423 1.34072L18.8983 0.90745C18.9841 0.669142 19.0475 0.468287 19.0393 0.46113C19.0312 0.453972 18.7481 0.347288 18.4103 0.224083L17.7962 0L17.7273 0.184605ZM4.50926 7.19307C4.28986 7.61625 4.08785 7.97182 4.06035 7.98325C4.03286 7.99469 3.67349 7.79028 3.26173 7.52897C2.84998 7.26766 2.50291 7.05388 2.49051 7.05388C2.46594 7.05388 2.50547 8.39397 2.53948 8.71389L2.56041 8.91096L1.61382 8.87792L0.667225 8.84488L0.901852 9.22107C1.03087 9.42795 1.25242 9.77952 1.39415 10.0023C1.53588 10.2252 1.64369 10.4213 1.63376 10.4382C1.62384 10.455 1.26181 10.6537 0.829348 10.8798C0.39684 11.1058 0.0538613 11.3083 0.0671582 11.3299C0.0804551 11.3515 0.445535 11.5542 0.878447 11.7805L1.66561 12.1918L1.56418 12.3575C1.50839 12.4486 1.28521 12.8031 1.06829 13.1451C0.851314 13.4872 0.673828 13.7769 0.673828 13.7888C0.673828 13.8008 0.790086 13.8 0.932129 13.7872C1.07422 13.7743 1.49909 13.752 1.87639 13.7376L2.56234 13.7115L2.54074 13.8826C2.52888 13.9766 2.50749 14.4031 2.49325 14.8301L2.46738 15.6065L3.26016 15.1056C3.88215 14.7126 4.0617 14.6181 4.09346 14.6668C4.11579 14.7009 4.31061 15.068 4.52646 15.4825C4.74231 15.897 4.92905 16.2361 4.94141 16.2361C4.95376 16.2361 5.1405 15.897 5.35635 15.4825C5.5722 15.068 5.76703 14.7009 5.78935 14.6668C5.82111 14.6181 6.00084 14.7128 6.62351 15.1061L7.41714 15.6076L7.39068 14.8756C7.37617 14.4731 7.35398 14.0464 7.3414 13.9275L7.31854 13.7114L8.00548 13.7376C8.38328 13.752 8.80864 13.7743 8.95068 13.7872C9.09273 13.8 9.20898 13.8008 9.20898 13.7888C9.20898 13.7769 9.0315 13.4872 8.81453 13.1451C8.5976 12.8031 8.37443 12.4486 8.31863 12.3575L8.2172 12.1918L9.00437 11.7805C9.43728 11.5542 9.80236 11.3515 9.81565 11.3299C9.82895 11.3083 9.48597 11.1058 9.05346 10.8798C8.621 10.6537 8.25902 10.455 8.24914 10.4382C8.23926 10.4213 8.35286 10.215 8.50164 9.97983C8.65043 9.74463 8.87194 9.39307 8.99385 9.19856L9.21559 8.84488L8.26661 8.87801L7.31764 8.9111L7.34086 8.69147C7.37734 8.34657 7.41831 7.05388 7.39275 7.05388C7.38008 7.05388 7.03283 7.26766 6.62108 7.52897C6.20933 7.79028 5.84995 7.99469 5.82246 7.98325C5.79497 7.97182 5.59295 7.61625 5.37355 7.19307C5.15416 6.76988 4.95969 6.42368 4.94141 6.42368C4.92312 6.42368 4.72866 6.76988 4.50926 7.19307ZM5.54552 8.92325C6.83293 9.25928 7.64467 10.5838 7.34464 11.859C7.13579 12.7467 6.47917 13.4358 5.59277 13.6977C5.23794 13.8025 4.64488 13.8025 4.29004 13.6977C3.40485 13.4361 2.74742 12.7487 2.54029 11.8681C2.24043 10.5932 3.03982 9.27 4.31807 8.9255C4.63868 8.83907 5.21889 8.83804 5.54552 8.92325ZM0 20.9952V21.6706L0.313016 21.6969C0.708148 21.7301 0.921348 21.8253 1.60519 22.274C2.47205 22.8429 2.95267 23.0005 3.81836 23C4.71069 22.9994 5.23223 22.8296 6.06499 22.2685C6.29351 22.1145 6.6143 21.9254 6.77786 21.8483C7.04047 21.7245 7.13139 21.7061 7.55635 21.6909C8.21967 21.6673 8.49145 21.7542 9.16528 22.2051C10.0943 22.8269 10.6016 22.9996 11.5 23C12.3783 23.0004 12.8306 22.8515 13.7301 22.2657C14.5279 21.7461 14.7728 21.6644 15.4486 21.6923C16.0123 21.7156 16.2501 21.807 16.9189 22.2576C17.7772 22.8359 18.2512 22.9942 19.1367 22.9985C20.0419 23.0028 20.5322 22.8469 21.3692 22.2883C22.032 21.846 22.2893 21.7303 22.6837 21.6971L23 21.6706V21.0019V20.3332H22.7735C22.1716 20.3332 21.4326 20.6031 20.7734 21.0638C20.0162 21.5929 19.4958 21.7464 18.8168 21.6408C18.3942 21.5752 18.1962 21.4843 17.542 21.0558C16.6246 20.4551 16.1111 20.3032 15.1401 20.3457C14.2916 20.3828 13.9462 20.5076 13.0498 21.1008C12.778 21.2807 12.4722 21.465 12.3702 21.5104C12.0772 21.6409 11.5572 21.6964 11.1542 21.6402C10.7309 21.5812 10.4831 21.4698 9.9165 21.0835C9.09434 20.5229 8.70316 20.3826 7.85989 20.3457C6.88895 20.3032 6.37536 20.4551 5.45801 21.0558C4.80377 21.4843 4.60575 21.5752 4.18321 21.6408C3.50292 21.7466 3.01579 21.6023 2.20162 21.0538C1.50327 20.5833 1.0093 20.3925 0.370605 20.3465L0 20.3198V20.9952Z" fill="#1E321E"/>
</svg>
