<svg width="21" height="21" viewBox="0 0 21 21" fill="none" xmlns="http://www.w3.org/2000/svg">
<path fill-rule="evenodd" clip-rule="evenodd" d="M4.51025 0.0554081C4.2876 0.136157 4.05754 0.342353 3.96662 0.542636C3.88792 0.715959 3.884 0.908565 3.88307 4.62367L3.8821 8.52273L3.99838 8.73647C4.21896 9.1418 4.61987 9.29443 5.3445 9.2489C5.76205 9.22269 5.98298 9.13744 6.18476 8.92484C6.45192 8.64328 6.44075 8.8301 6.44075 4.63761C6.44075 1.88898 6.42655 0.761452 6.39055 0.65392C6.3081 0.40757 6.13398 0.214038 5.89448 0.10249C5.69623 0.010136 5.60703 -0.00226317 5.16143 0.000296083C4.8824 0.00188458 4.58935 0.0266828 4.51025 0.0554081ZM0.0730099 0.915581C0.00630844 0.98927 0 1.31015 0 4.62208C0 8.18906 0.00141167 8.24929 0.0882295 8.33613C0.173195 8.42111 0.235264 8.42438 1.76459 8.42438H3.35272V4.62963V0.834876H1.74937C0.252116 0.834876 0.141167 0.840215 0.0730099 0.915581ZM6.97013 4.62715V8.42438H8.55619C9.64829 8.42438 10.1766 8.44004 10.2525 8.47464C10.4662 8.57202 10.4993 8.73325 10.4993 9.67757V10.5424H14.2932H18.087V8.91443C18.087 7.13672 18.0518 6.61132 17.8855 5.90925C17.5896 4.65959 16.973 3.59569 16.0036 2.6617C15.1159 1.80655 14.0558 1.24299 12.8021 0.959706C12.3922 0.867132 12.2605 0.862366 9.67216 0.846481L6.97013 0.829934V4.62715ZM10.2094 11.1554C9.99671 11.252 9.76462 11.5179 9.70458 11.7338C9.64375 11.9525 9.65081 12.77 9.71539 12.9862C9.78505 13.2194 10.0845 13.5216 10.3074 13.5834C10.4219 13.6153 11.7238 13.6307 14.3056 13.6309C18.4924 13.6312 18.3059 13.6423 18.5874 13.3751C18.8374 13.1377 18.8811 12.9855 18.8811 12.3515C18.8811 11.7169 18.8365 11.5618 18.5874 11.3306C18.2914 11.056 18.5541 11.0718 14.2844 11.0728C10.5905 11.0738 10.3797 11.0781 10.2094 11.1554ZM10.3184 14.282C10.2462 14.471 10.2194 15.1262 10.2724 15.4083C10.2987 15.5485 10.3729 15.7868 10.4373 15.9378C10.5016 16.0888 10.5941 16.3258 10.6427 16.4644C10.7303 16.7143 10.7336 16.7174 11.0257 16.8291C11.5655 17.0354 11.9058 17.0825 12.705 17.0618C13.4955 17.0412 13.4937 17.0416 14.6526 16.616C15.3818 16.3482 15.6991 16.3 16.6974 16.3058C17.4267 16.31 17.6396 16.3263 17.9251 16.3998L18.2704 16.4887L18.2418 16.3727C18.2261 16.3088 18.1469 16.1076 18.0658 15.9256C17.9847 15.7436 17.8969 15.5153 17.8706 15.4182C17.8034 15.17 17.8117 14.7116 17.8885 14.4254C17.9244 14.2919 17.9539 14.1777 17.9542 14.1717C17.9545 14.1656 16.247 14.1606 14.1597 14.1606H10.3648L10.3184 14.282ZM0.0945379 16.8901C0.00079405 16.9838 0 17.0009 0 18.9041C0 20.7647 0.002691 20.8262 0.0882295 20.9118C0.175974 20.9995 0.235264 21 10.4993 21C20.7634 21 20.8226 20.9995 20.9104 20.9118C20.9952 20.8269 20.9986 20.7647 20.9986 19.308C20.9986 17.4861 21.0625 17.6471 20.3196 17.5973C19.7231 17.5572 19.4659 17.4948 18.7152 17.2076C17.8948 16.8938 17.5534 16.8314 16.6533 16.8308C15.7392 16.8301 15.5051 16.8725 14.5733 17.2081C13.6383 17.5447 13.3435 17.6024 12.5564 17.6024C11.7632 17.6024 11.4522 17.5439 10.6096 17.2362C9.61905 16.8746 9.38599 16.8309 8.44798 16.8309C7.52002 16.8309 7.25939 16.8783 6.37458 17.2086C5.41275 17.5677 5.34283 17.5804 4.3453 17.5793C3.34928 17.5781 3.2982 17.5686 2.34298 17.2071C1.66432 16.9503 1.24712 16.856 0.634944 16.821C0.21978 16.7973 0.182503 16.8021 0.0945379 16.8901Z" fill="#1E321E"/>
</svg>
