<svg width="20" height="20" viewBox="0 0 20 20" fill="none" xmlns="http://www.w3.org/2000/svg">
<path fill-rule="evenodd" clip-rule="evenodd" d="M9.09525 0.0359851C8.37858 0.102795 7.5825 0.268571 6.84946 0.503696L6.45996 0.628604L6.61498 0.706158C7.42345 1.11054 8.43317 1.70214 9.28353 2.26964L9.80394 2.61701L10.0527 2.39865C10.3632 2.12613 10.781 1.65987 10.8768 1.47905C10.9367 1.36586 10.9517 1.23056 10.9639 0.693929L10.9787 0.0455573L10.6759 0.0199662C10.2948 -0.0122277 9.52941 -0.0044918 9.09525 0.0359851ZM11.9863 0.607115C11.985 1.34234 11.8811 1.80579 11.6385 2.15821C11.5713 2.25592 11.3204 2.53957 11.081 2.78857C10.7143 3.16989 10.6544 3.24917 10.7009 3.29148C10.7312 3.3191 10.888 3.44823 11.0492 3.57845C11.2104 3.70867 11.4755 3.92997 11.6383 4.07023L11.9343 4.32528L12.5567 3.95443C13.2811 3.5227 14.2184 3.0564 14.6623 2.90687C14.9665 2.80439 15.8396 2.58411 16.305 2.49245L16.5392 2.44635L16.3832 2.30933C15.9127 1.89612 15.1521 1.39973 14.4613 1.05506C13.7594 0.70483 13.1336 0.474276 12.3779 0.287481C12.2382 0.252943 12.0931 0.21563 12.0555 0.204574C11.9933 0.186289 11.987 0.223171 11.9863 0.607115ZM4.87327 1.41118C3.42293 2.3007 2.27769 3.44808 1.41861 4.87223C1.16108 5.29915 0.875962 5.85524 0.90152 5.88079C0.911289 5.89056 1.12783 5.8282 1.3827 5.74217C2.07018 5.51013 2.76109 5.34291 4.13222 5.07664C5.67205 4.77764 6.02821 4.70028 6.41142 4.58162C7.10132 4.36795 7.85836 4.00248 8.58323 3.53313L8.98954 3.27007L8.56369 2.994C7.74733 2.46487 7.03805 2.05881 6.22294 1.65404C5.77158 1.4299 5.35832 1.23751 5.30459 1.22654C5.23315 1.21192 5.11724 1.26154 4.87327 1.41118ZM17.3214 3.34227C16.5156 3.4469 15.3437 3.71375 14.8321 3.90907C14.4231 4.06523 13.7411 4.41362 13.1476 4.76967L12.6857 5.04672L12.8773 5.2457C13.2065 5.58768 13.6014 6.05707 13.8376 6.38698L14.0646 6.70416L14.3522 6.61285C14.9626 6.41906 15.4105 6.34788 16.0318 6.346C16.6992 6.34397 16.855 6.37835 17.4386 6.65645C18.0544 6.94991 18.8763 7.60606 19.5498 8.34187C19.8579 8.67854 19.9241 8.73468 19.9054 8.64337C19.8928 8.58172 19.8636 8.40817 19.8406 8.25775C19.6069 6.72987 18.8107 4.99022 17.7441 3.67675C17.5827 3.47796 17.4479 3.31797 17.4446 3.32121C17.4413 3.32442 17.3859 3.33391 17.3214 3.34227ZM9.2711 4.2741C8.38604 4.87082 7.42013 5.33228 6.49521 5.60026C6.30571 5.65516 5.56024 5.8141 4.83857 5.9535C2.55647 6.39425 1.68412 6.63129 0.822736 7.04466C0.336242 7.27814 0.394157 7.20297 0.249213 7.78891C0.0764452 8.48725 -0.0310611 9.6367 0.00801787 10.3675C0.0893021 11.8884 0.400957 13.1207 1.02575 14.3918C1.27535 14.8996 1.72929 15.6616 1.78216 15.6616C1.7976 15.6616 1.8418 15.5429 1.88041 15.3979C1.99522 14.9666 2.28249 14.2748 2.61216 13.6356C4.00197 10.9407 7.06924 7.74062 10.796 5.09704L11.0658 4.90571L10.8914 4.74963C10.6515 4.53493 9.86248 3.90098 9.8381 3.90332C9.82716 3.90438 9.57201 4.07125 9.2711 4.2741ZM11.457 5.8668C9.21772 7.44626 7.14939 9.28866 5.61472 11.0708C3.938 13.0179 2.90365 14.909 2.64831 16.4941L2.60943 16.7353L2.87258 17.0026C4.29311 18.4453 6.18222 19.4536 8.15188 19.8203C8.62716 19.9088 8.61305 19.9129 8.72837 19.6565C9.32906 18.3214 9.86385 16.4819 10.7758 12.6141C11.1943 10.8392 11.3907 10.0989 11.595 9.52648C11.9336 8.57758 12.2521 8.04236 12.7975 7.50604L13.1646 7.14499L12.9791 6.90045C12.6504 6.46704 11.89 5.6205 11.8294 5.6205C11.8166 5.6205 11.649 5.73135 11.457 5.8668ZM15.4651 7.37605C15.0468 7.44845 14.7268 7.52815 14.6733 7.5732C14.657 7.58699 14.7827 7.87463 14.9527 8.21243C15.6561 9.61005 16.187 11.1623 16.5798 12.97C16.8101 14.0299 17.0166 15.416 17.0855 16.3648C17.0988 16.5475 17.119 16.7611 17.1304 16.8395L17.1511 16.982L17.3746 16.7418C18.8774 15.1265 19.7844 13.0194 19.9757 10.6984L20 10.4042L19.5797 9.89749C18.9881 9.18422 18.1705 8.3584 17.7191 8.01801C16.8742 7.38089 16.3311 7.22622 15.4651 7.37605ZM13.469 8.2254C12.9491 8.71159 12.5582 9.57946 12.1694 11.1113C12.0714 11.4973 11.8312 12.49 11.6356 13.3174C10.8497 16.6409 10.2776 18.6206 9.77428 19.759C9.72321 19.8745 9.68143 19.9783 9.68143 19.9897C9.68143 20.0261 10.9225 19.9587 11.3459 19.8993C12.9908 19.6685 14.4296 19.0968 15.8104 18.1257L16.1753 17.8691L16.149 17.3221C16.0179 14.5939 15.4004 11.7603 14.4419 9.48847C14.2407 9.01161 13.7422 8.04286 13.698 8.04286C13.6794 8.04286 13.5763 8.12499 13.469 8.2254Z" fill="#1E321E"/>
</svg>
