<svg width="17" height="27" viewBox="0 0 17 27" fill="none" xmlns="http://www.w3.org/2000/svg">
<path fill-rule="evenodd" clip-rule="evenodd" d="M3.49072 0.108752C3.37301 0.17241 3.25782 0.293714 3.19451 0.420767C3.0958 0.618809 3.09091 0.728932 3.09091 2.74042V4.85217H1.85248C0.71297 4.85217 0.597833 4.86066 0.410782 4.95833C0.279882 5.02668 0.170464 5.13871 0.1037 5.27272C0.00597578 5.46892 0 5.58104 0 7.22551C0 8.83442 0.00762441 8.98542 0.0977244 9.16627C0.255773 9.48345 0.515718 9.59885 1.07193 9.59885H1.53747L1.55916 12.0645C1.57899 14.3175 1.59002 14.5711 1.68702 15.0048C2.00811 16.441 2.57849 17.5081 3.57979 18.5463C4.64347 19.6491 5.96092 20.3498 7.4053 20.5809C7.71439 20.6303 7.77879 20.6576 7.77879 20.7388C7.77879 20.9255 7.93874 21.6515 8.07248 22.0721C8.4185 23.1602 8.96513 24.0649 9.78129 24.9005C11.0185 26.1671 12.5501 26.8762 14.2839 26.9848C14.7607 27.0146 14.8339 27.0068 15.0299 26.9044C15.417 26.7023 15.5539 26.2491 15.3508 25.8417C15.202 25.543 14.9734 25.4431 14.3459 25.4027C12.0017 25.2517 10.014 23.5525 9.43387 21.2036C9.37354 20.9596 9.32424 20.7318 9.32424 20.6975C9.32424 20.6606 9.51176 20.6 9.78345 20.5491C10.036 20.5018 10.4823 20.3783 10.7751 20.2747C11.7922 19.9147 12.5571 19.4197 13.3754 18.5917C14.2172 17.74 14.7762 16.82 15.1107 15.7358C15.4135 14.7544 15.4167 14.719 15.4405 12.0645L15.4625 9.59885H15.9243C16.4938 9.59885 16.7397 9.49242 16.8963 9.17829C16.994 8.9821 17 8.86997 17 7.22551C17 5.58104 16.994 5.46892 16.8963 5.27272C16.8295 5.13871 16.7201 5.02668 16.5892 4.95833C16.4022 4.86066 16.287 4.85217 15.1475 4.85217H13.9091V2.74042C13.9091 0.728088 13.9042 0.618915 13.8054 0.420556C13.6888 0.186545 13.392 0 13.1364 0C12.8807 0 12.584 0.186545 12.4673 0.420556C12.3685 0.618915 12.3636 0.728088 12.3636 2.74042V4.85217H8.5H4.63636V2.74042C4.63636 0.728088 4.63147 0.618915 4.53266 0.420556C4.34257 0.039081 3.87724 -0.100155 3.49072 0.108752ZM8.8604 9.71055C9.19741 9.90443 9.35258 10.3263 9.21915 10.6855C9.18974 10.7648 8.96724 11.0373 8.72476 11.291L8.28389 11.7522L9.43495 12.3501C10.4913 12.8987 10.5955 12.9652 10.7012 13.1589C10.8431 13.4186 10.8488 13.6562 10.7193 13.9125C10.5935 14.1616 8.98584 15.7963 8.79286 15.8714C8.30213 16.0622 7.72727 15.6538 7.72727 15.1142C7.72727 14.8449 7.79038 14.7464 8.3114 14.2021C8.53967 13.9637 8.716 13.7605 8.70333 13.7506C8.69066 13.7408 8.17607 13.4766 7.5598 13.1637C6.39772 12.5738 6.26718 12.4751 6.20108 12.1367C6.12464 11.7454 6.19428 11.6307 7.04902 10.7414C7.49288 10.2796 7.94647 9.8336 8.05697 9.75027C8.30357 9.56441 8.58248 9.55064 8.8604 9.71055Z" fill="#1E321E"/>
</svg>
