<svg width="23" height="23" viewBox="0 0 23 23" fill="none" xmlns="http://www.w3.org/2000/svg">
<path fill-rule="evenodd" clip-rule="evenodd" d="M20.7206 0.0212908C20.1131 0.0496616 18.9603 0.180905 18.2011 0.308101C17.4276 0.437636 15.9634 0.776378 15.8934 0.841977C15.8738 0.860321 15.8976 1.05811 15.9464 1.28143C16.5064 3.84555 18.4867 6.02552 20.9978 6.84194C21.6036 7.03891 22.1042 7.16526 22.1393 7.1301C22.1963 7.07326 22.5673 5.48346 22.6769 4.8272C22.8395 3.85288 22.9121 3.16101 22.9708 2.02694C23.0354 0.776018 23.0113 0.618202 22.7073 0.305089C22.572 0.165663 22.4339 0.0717378 22.3177 0.0399499C22.1533 -0.00501184 21.4566 -0.0131499 20.7206 0.0212908ZM13.9045 1.53542C11.223 2.71778 9.42266 4.2739 8.01936 6.62212C7.81789 6.95924 7.29991 8.00937 7.12112 8.44307C6.53516 9.86444 6.06231 11.7145 5.85266 13.4062C5.81621 13.7002 5.77721 13.9499 5.76596 13.9611C5.75471 13.9724 4.58487 14.0606 3.16636 14.1573C1.74785 14.254 0.542099 14.3434 0.486851 14.3562C0.431647 14.3689 0.315527 14.4416 0.228785 14.5177C-0.0721124 14.7817 -0.0768814 15.2306 0.218482 15.4867C0.312017 15.5678 1.26384 15.9922 2.8242 16.6486L5.28258 17.6827L6.3476 20.1781C7.00734 21.7238 7.45725 22.7209 7.52986 22.7981C7.75288 23.0353 8.15995 23.0688 8.41199 22.8706C8.65724 22.6778 8.65777 22.6739 8.84764 19.8935C8.94585 18.455 9.0339 17.2555 9.0433 17.228C9.0527 17.2005 9.20891 17.1635 9.3904 17.1457C9.89979 17.0959 10.9606 16.914 11.6325 16.7613C15.0187 15.9918 17.6369 14.5234 19.4494 12.3772C19.9406 11.7956 20.5929 10.817 20.9629 10.1066C21.2284 9.59678 21.7245 8.48713 21.6985 8.46128C21.6926 8.45543 21.4955 8.39698 21.2605 8.33129C20.1321 8.01607 19.2606 7.62895 18.4282 7.07317C16.5464 5.81672 15.2379 3.9745 14.6907 1.81122C14.6139 1.5075 14.5422 1.31291 14.505 1.30702C14.4716 1.30171 14.2014 1.40449 13.9045 1.53542ZM19.8703 2.92492C20.3093 3.21793 20.2635 3.8567 19.7871 4.08718C19.2125 4.36513 18.6319 3.75496 18.9294 3.18588C19.1131 2.83459 19.5525 2.7127 19.8703 2.92492Z" fill="#1E321E"/>
</svg>
