<svg width="23" height="23" viewBox="0 0 23 23" fill="none" xmlns="http://www.w3.org/2000/svg">
<path d="M19.1924 6.25212C19.3325 5.61809 19.2904 4.95737 19.0709 4.34627C18.8515 3.73516 18.4636 3.1986 17.9522 2.79855C17.4407 2.3985 16.8266 2.15129 16.1806 2.08546C15.5346 2.01963 14.8832 2.13787 14.3016 2.42652C14.0846 1.72375 13.6482 1.10897 13.0564 0.672289C12.4646 0.235609 11.7484 0 11.0129 0C10.2774 0 9.56124 0.235609 8.96941 0.672289C8.37758 1.10897 7.94119 1.72375 7.72423 2.42652C7.1426 2.13787 6.49118 2.01963 5.84521 2.08546C5.19924 2.15129 4.58507 2.3985 4.07362 2.79855C3.56218 3.1986 3.17433 3.73516 2.95487 4.34627C2.73541 4.95737 2.6933 5.61809 2.83338 6.25212C1.98706 6.40413 1.22828 6.86742 0.706403 7.55082C0.184528 8.23421 -0.0626422 9.0882 0.013543 9.94469C0.0897283 10.8012 0.48375 11.5981 1.11805 12.1787C1.75236 12.7592 2.581 13.0813 3.44087 13.0816H3.5097C3.69227 13.9761 4.22273 14.7616 4.98438 15.265C5.74603 15.7685 6.67649 15.9488 7.57107 15.7662C8.46564 15.5836 9.25105 15.0532 9.75452 14.2915C10.258 13.5299 10.4383 12.5994 10.2557 11.7048H11.0817C10.9099 12.6013 11.1012 13.5294 11.6137 14.2848C12.1261 15.0403 12.9176 15.5612 13.8141 15.7331C14.7106 15.9049 15.6387 15.7136 16.3941 15.2012C17.1496 14.6887 17.6705 13.8972 17.8424 13.0007C18.2903 13.1022 18.7541 13.113 19.2063 13.0325C19.6586 12.952 20.0901 12.7818 20.4755 12.5319C20.861 12.282 21.1925 11.9575 21.4505 11.5775C21.7085 11.1975 21.8879 10.7696 21.978 10.3192C22.0681 9.86881 22.0672 9.40491 21.9752 8.95487C21.8833 8.50482 21.7021 8.07774 21.4425 7.69879C21.1829 7.31984 20.8501 6.99669 20.4637 6.74838C20.0772 6.50007 19.645 6.33163 19.1924 6.25298V6.25212Z" fill="#1E321E"/>
<path d="M8.60352 22.0304H13.4221L12.7337 10.3281H9.29188L8.60352 22.0304Z" fill="#1E321E"/>
</svg>
