<svg width="17" height="22" viewBox="0 0 17 22" fill="none" xmlns="http://www.w3.org/2000/svg">
<path fill-rule="evenodd" clip-rule="evenodd" d="M6.5424 0.41578C6.39868 0.998894 5.9529 2.30697 5.66206 2.99913C5.35364 3.73299 4.7334 4.95424 4.28513 5.71019C4.09589 6.02934 3.512 6.96466 2.98761 7.7887C1.81367 9.63347 1.48895 10.1751 1.12841 10.8897C0.264646 12.6018 -0.0542014 13.8855 0.00739452 15.403C0.0606173 16.7151 0.372962 17.8713 0.930488 18.8202C1.84396 20.3749 3.48135 21.485 5.49327 21.9137C5.71373 21.9607 5.906 21.9995 5.92056 22C5.93508 22.0005 5.78477 21.8414 5.58653 21.6463C4.85668 20.9283 4.21944 19.7894 3.98129 18.7772C3.89449 18.4082 3.88224 17.5723 3.95697 17.1207C4.09642 16.2783 4.2752 15.7947 4.95721 14.4153C5.31908 13.6834 5.69449 12.7775 5.84846 12.2648C5.91139 12.0551 5.97459 11.8727 5.98888 11.8595C6.02429 11.8266 6.50681 12.3352 6.74086 12.652C7.24833 13.3391 7.52192 14.0286 7.67856 15.0151L7.70573 15.186L7.81561 15.0151C8.02493 14.6896 8.4447 13.8534 8.64682 13.3594C9.30215 11.7576 9.60652 9.95597 9.48159 8.41815C9.45376 8.07536 9.42049 7.76106 9.40766 7.71967C9.39483 7.67827 9.40445 7.64445 9.42904 7.64445C9.45362 7.64445 9.7812 7.9394 10.157 8.29995C13.1338 11.1556 14.3088 14.3642 13.569 17.6166C13.1893 19.2857 12.1734 20.9365 10.9835 21.8181C10.8677 21.904 10.7803 21.9813 10.7893 21.9899C10.8237 22.0231 11.9012 21.7845 12.2951 21.6564C12.8737 21.4683 13.7954 21.0178 14.2514 20.7002C15.8586 19.5808 16.7439 18.0043 16.9588 15.8791C17.0412 15.0642 16.9977 13.8644 16.848 12.824C16.4416 9.99964 15.2323 7.41642 13.2024 5.03634C12.6566 4.39635 11.2298 3.03524 10.5038 2.46184C9.26024 1.47979 7.99594 0.656659 6.95126 0.148938L6.64484 0L6.5424 0.41578Z" fill="#1E321E"/>
</svg>
