<svg width="21" height="16" viewBox="0 0 21 16" fill="none" xmlns="http://www.w3.org/2000/svg">
<path fill-rule="evenodd" clip-rule="evenodd" d="M9.78293 0.0376842C7.18254 0.205262 4.66214 1.15468 2.57998 2.75097C1.71859 3.41135 0.324641 4.76132 0.153431 5.10096C0.0150663 5.37549 -0.0347777 5.73301 0.0247148 6.02449C0.0926242 6.35724 0.186646 6.53919 0.406099 6.76249C0.787032 7.15008 1.39304 7.28525 1.89485 7.09457C2.10876 7.01325 2.23041 6.91137 2.8992 6.25319C4.00899 5.16096 4.71592 4.61514 5.7105 4.08241C6.72828 3.53721 7.74273 3.19249 8.95968 2.97825C9.67281 2.85273 11.1422 2.82264 11.8972 2.91813C13.1055 3.07096 14.2198 3.40607 15.2826 3.93631C16.4058 4.49668 17.1858 5.06369 18.1771 6.0404C18.482 6.34078 18.8053 6.6326 18.8956 6.68886C19.1375 6.83957 19.412 6.90339 19.713 6.87892C20.6876 6.79976 21.2778 5.77152 20.8683 4.86628C20.6778 4.44511 19.4685 3.2923 18.4096 2.52243C16.3744 1.04274 14.0333 0.208877 11.4231 0.0339031C10.7362 -0.0121361 10.549 -0.0116792 9.78293 0.0376842ZM9.59608 5.25275C8.21625 5.46238 6.9665 5.99657 5.8508 6.85357C5.32472 7.25766 4.08355 8.5252 3.95254 8.79212C3.56335 9.58518 3.86853 10.497 4.65881 10.9022C4.87284 11.012 4.9334 11.0233 5.30555 11.0233C5.91583 11.0233 6.01379 10.9664 6.90836 10.0915C7.85076 9.16995 8.34702 8.83305 9.17655 8.55183C10.1713 8.21451 11.323 8.21555 12.323 8.55457C13.1032 8.81913 13.6424 9.17793 14.5024 10.0048C15.1713 10.6479 15.4006 10.7742 15.8984 10.7736C16.0791 10.7734 16.3019 10.7503 16.3935 10.7222C16.7985 10.5982 17.1928 10.207 17.3569 9.76647C17.4869 9.41748 17.4603 8.90726 17.2948 8.57622C17.0676 8.12177 16.0727 7.15952 15.2004 6.5507C14.2082 5.85812 12.9474 5.38297 11.6911 5.22819C11.2062 5.16844 10.0627 5.18182 9.59608 5.25275ZM10.0135 11.1078C9.20927 11.2845 8.50965 11.926 8.21748 12.7548C8.06265 13.1939 8.07181 13.8698 8.23916 14.3516C8.50328 15.1122 9.16345 15.7295 9.92963 15.9325C10.09 15.975 10.3436 16.0011 10.5841 16C11.2759 15.9967 11.8988 15.7125 12.3705 15.1848C12.913 14.5783 13.1221 13.7275 12.9228 12.9387C12.8046 12.4713 12.6217 12.1507 12.2662 11.7882C11.662 11.1721 10.8446 10.9253 10.0135 11.1078Z" fill="#1E321E"/>
</svg>
