<svg width="27" height="25" viewBox="0 0 27 25" fill="none" xmlns="http://www.w3.org/2000/svg">
<path fill-rule="evenodd" clip-rule="evenodd" d="M10.684 0.113484C10.0364 0.421452 9.77773 1.04521 10.0636 1.60935C10.1182 1.71715 10.133 1.84657 10.1116 2.02874C10.0834 2.26984 10.0937 2.30445 10.2325 2.4354L10.3844 2.57856L10.2321 2.80736C10.054 3.07492 10.0541 3.07428 9.94564 4.35476C9.78607 6.23775 9.56383 7.40148 9.25413 7.97568C9.18213 8.10919 8.93451 8.39262 8.70389 8.60556C8.47321 8.81845 8.20883 9.10369 8.1163 9.23944C7.90514 9.54916 7.65247 10.2719 7.65152 10.5689C7.65088 10.7694 7.61565 10.8333 7.33058 11.1508C7.15445 11.3469 6.96302 11.601 6.9052 11.7153C6.80023 11.923 6.79986 11.9232 6.54798 11.8883C6.21866 11.8425 5.694 11.9412 5.36099 12.1115C5.04433 12.2735 4.53512 12.7759 4.23898 13.2185C3.72794 13.9823 3.40452 14.8007 3.07077 16.1746C2.65858 17.8713 2.42141 18.3697 1.34762 19.7955C1.09822 20.1267 0.693412 20.5872 0.448069 20.8188C-0.151651 21.3851 -0.149277 21.6003 0.454768 21.4269L0.744105 21.3438L0.504934 21.6123C0.373374 21.76 0.265763 21.9235 0.265763 21.9758C0.265763 22.1003 0.391573 22.1452 0.559795 22.0807C0.742522 22.0106 0.737564 22.0062 0.705069 22.2082C0.662869 22.4706 0.816057 22.5613 1.30152 22.5613C1.67816 22.5613 1.68296 22.5595 1.98875 22.3015C2.74456 21.6639 3.65788 20.4482 4.09587 19.4967C4.35329 18.9375 4.45843 18.4948 4.75219 16.7334C5.0553 14.9155 5.16491 14.4241 5.34822 14.0605C5.56893 13.6229 5.99626 13.2674 6.17081 13.3763C6.20146 13.3954 6.22657 13.5042 6.22657 13.6181C6.22657 14.2527 6.73593 15.1928 7.3434 15.6793C7.62583 15.9055 8.49563 16.4484 8.66934 16.5068C8.7558 16.5359 8.66633 16.7859 8.4807 17.0339C8.36412 17.1897 8.18008 17.3334 7.91295 17.4773C7.37779 17.7656 7.25536 17.8553 7.18541 18.0102C7.10154 18.196 7.14105 18.2736 7.7806 19.1782C8.39097 20.0416 8.55202 20.3128 8.99317 21.22C9.17173 21.5871 9.25714 21.816 9.21557 21.816C9.08971 21.816 7.15276 22.3526 6.59582 22.5418C5.70075 22.8457 3.60134 23.9771 2.61981 24.6842L2.20445 24.9835L14.2732 24.9969C20.9109 25.0043 26.3543 24.9978 26.3694 24.9826C26.4105 24.9411 26.8332 22.5818 26.9376 21.8115C26.9875 21.4431 27.0127 21.1007 26.9936 21.0505C26.9319 20.8881 26.607 20.8051 25.5196 20.6737C23.0358 20.3738 21.1953 20.2546 18.9658 20.2496C17.3041 20.2457 17.1786 20.2526 16.202 20.4L15.1789 20.5545L14.8832 20.3924C14.7206 20.3033 14.3027 20.0828 13.9545 19.9024C13.2019 19.5123 12.0889 18.776 11.7513 18.4449C11.4598 18.159 11.2699 17.8073 11.3131 17.6335C11.3311 17.5615 11.4644 17.4285 11.6297 17.3178C11.9789 17.084 12.5519 16.4793 12.8176 16.0644C12.9259 15.8954 13.1041 15.5159 13.2137 15.221C13.4095 14.6942 13.4162 14.6844 13.6046 14.6536C14.7072 14.4731 15.4558 14.2733 16.1662 13.9699C16.3308 13.8996 16.3821 13.8954 16.4162 13.9492C16.4567 14.0134 16.6851 14.6061 16.7436 14.7989C16.79 14.9518 17.1155 15.0041 17.6704 14.9479C18.295 14.8846 18.5607 14.8425 18.721 14.7814C18.9068 14.7105 18.7887 14.6046 18.3684 14.4651C17.5964 14.2089 17.1987 13.9103 17.1987 13.587C17.1987 13.4868 17.1946 13.3869 17.1895 13.3649C17.1844 13.3429 17.4159 13.1793 17.7038 13.0014L18.2273 12.6779L18.4749 12.9349C18.7188 13.188 18.7274 13.1919 19.0524 13.1919C19.5698 13.1919 20.5838 13.0808 20.7693 13.0037L20.9375 12.9338L21.0939 13.3157C21.3699 13.9897 21.4715 14.3995 21.4707 14.8344C21.4702 15.0583 21.4489 15.2747 21.4234 15.3154C21.3979 15.3561 21.2499 15.452 21.0945 15.5284C20.7607 15.6926 20.6821 15.8266 20.681 16.2331C20.68 16.6217 20.7452 16.6806 21.0552 16.5704C21.6044 16.3752 22.0748 15.8513 22.2341 15.257L22.3246 14.9198L22.1836 14.5216C22.106 14.3026 21.9369 13.7165 21.8077 13.2192C21.6785 12.7218 21.5376 12.2607 21.4945 12.1944C21.4192 12.0785 21.3875 12.0739 20.6585 12.0739C19.9978 12.0739 19.8851 12.0612 19.7793 11.9747C19.6612 11.8783 19.6607 11.874 19.7606 11.8201C19.817 11.7896 20.1308 11.7249 20.4578 11.6763C20.8111 11.6239 21.2961 11.503 21.6529 11.3784C21.9833 11.2632 22.3488 11.1689 22.4653 11.1689C22.6685 11.1689 22.7039 11.1975 23.35 11.8846C24.0823 12.6633 24.1567 12.7662 24.1606 13.0055C24.1621 13.0934 24.1933 13.2251 24.23 13.2983C24.2917 13.4215 24.2813 13.4462 24.09 13.6299L23.8832 13.8283L23.919 14.2266C23.9634 14.7216 24.0381 14.9486 24.1565 14.9486C24.3064 14.9486 24.6644 14.6467 24.8675 14.3492L25.059 14.0685L24.9973 13.3683L24.9356 12.6681L24.2294 11.9052C23.841 11.4856 23.4117 11.004 23.2754 10.8351C22.9754 10.4632 22.9348 10.4502 21.8303 10.3727C20.9819 10.3131 20.4762 10.2438 20.278 10.16C20.1856 10.1209 20.1591 10.0488 20.1274 9.74991C20.0608 9.12189 19.921 8.78273 19.3818 7.9406C18.4159 6.43227 18.0803 5.76843 17.9694 5.14685C17.9366 4.96329 17.9429 4.95249 18.1009 4.9206C18.4187 4.85645 18.568 4.88892 19.3184 5.18561C20.2102 5.53808 20.3304 5.56198 20.571 5.43507C20.8879 5.26785 20.963 5.1106 20.9199 4.70452L20.8826 4.35236L20.2671 3.94783C19.8826 3.69517 19.4635 3.35851 19.1504 3.05081C18.6768 2.58537 18.2312 2.24173 17.8449 2.04412C17.6875 1.96358 17.6734 1.93558 17.6734 1.70177C17.6734 1.56176 17.642 1.40386 17.6037 1.35089C17.5392 1.26199 17.5106 1.27902 17.2278 1.57464L16.9216 1.89464L16.6248 1.86743C16.4045 1.84731 16.2329 1.87105 15.9589 1.95975C15.6268 2.06717 15.4707 2.08022 14.4029 2.08969C13.3767 2.09885 13.1509 2.11636 12.7355 2.21906C12.4496 2.28975 12.1398 2.33128 11.9706 2.32153C11.7041 2.3062 11.6852 2.29598 11.6695 2.15847C11.6576 2.05413 11.6804 2.00276 11.7486 1.98051C12.1688 1.84327 12.1998 1.79104 12.0752 1.43048C12.0289 1.29638 12.0315 1.22898 12.087 1.12437C12.1503 1.00486 12.1468 0.981596 12.0541 0.911378C11.9968 0.868044 11.9134 0.804588 11.8687 0.770357C11.7152 0.652813 11.5626 0.383867 11.5453 0.200045C11.528 0.0166486 11.5271 0.0160098 11.2379 0.00206207C11.0216 -0.00842533 10.8806 0.0199492 10.684 0.113484ZM10.6046 0.437422C10.2627 0.782814 10.2445 0.823912 10.2376 1.2671C10.2327 1.58332 10.2256 1.60424 10.1548 1.5098C10.0475 1.36665 10.0559 0.906267 10.1697 0.693698C10.2579 0.528828 10.7223 0.149152 10.8357 0.149152C10.8655 0.149152 10.7615 0.278887 10.6046 0.437422ZM10.4073 3.03718C10.3502 3.19939 10.3153 3.63752 10.2839 4.58479C10.2179 6.57388 10.1016 7.45386 9.83381 7.98707C9.69175 8.26997 9.17585 8.85438 8.89047 9.05567C8.80343 9.1171 8.89221 8.99466 9.0877 8.78358C9.82125 7.99181 9.99005 7.32099 10.1285 4.64755C10.1881 3.49665 10.239 3.13811 10.3721 2.93071C10.4862 2.75306 10.4965 2.78415 10.4073 3.03718ZM14.5532 3.45204C14.4162 3.88341 14.3684 4.69658 14.4516 5.17868C14.4857 5.37656 14.5012 5.55101 14.4859 5.5664C14.4471 5.60553 13.6808 5.318 13.6217 5.24214C13.5951 5.20791 13.5583 5.01222 13.5401 4.80726C13.5218 4.6023 13.449 4.19505 13.3782 3.90226C13.3075 3.60946 13.2658 3.35345 13.2856 3.33338C13.3159 3.30261 14.6188 3.08131 14.6513 3.10143C14.6574 3.10521 14.6133 3.263 14.5532 3.45204ZM14.6636 6.41013C14.7366 6.48386 14.2125 6.9633 14.0589 6.9633C13.939 6.9633 13.7239 6.73652 13.6348 6.51623L13.5509 6.30871L14.0945 6.34646C14.3934 6.36727 14.6495 6.39591 14.6636 6.41013ZM9.6026 18.0803C9.6026 18.2454 9.80696 18.3816 10.7631 18.8538C11.2708 19.1046 11.8573 19.4245 12.0664 19.5647C12.5002 19.8557 13.5709 20.8148 13.5161 20.8634C13.4961 20.8811 13.0406 20.9835 12.5039 21.091C11.9671 21.1985 11.2722 21.3427 10.9596 21.4116L10.3913 21.5368L10.0215 21.1574C9.31184 20.4291 8.54759 19.2002 8.54759 18.7874C8.54759 18.5355 8.71133 18.3697 9.1806 18.1463C9.58187 17.9553 9.6026 17.9521 9.6026 18.0803Z" fill="#1E321E"/>
</svg>
