<svg width="22" height="14" viewBox="0 0 22 14" fill="none" xmlns="http://www.w3.org/2000/svg">
<path fill-rule="evenodd" clip-rule="evenodd" d="M4.62679 0.065696C3.84205 0.20255 3.30962 0.45704 2.34622 1.15567C1.43034 1.81988 0.89766 2.04641 0.24707 2.04846L0 2.04921V3.47617V4.90313L0.24707 4.90238C0.896285 4.90032 1.4306 4.67357 2.33956 4.01441C2.67386 3.772 3.07613 3.50021 3.23348 3.41044C4.5329 2.66918 6.46714 2.66923 7.7666 3.41049C7.92404 3.5003 8.32923 3.77352 8.6671 4.0177C9.67154 4.74367 10.0884 4.90157 11 4.90157C11.9116 4.90157 12.3405 4.73894 13.3396 4.01441C13.6739 3.772 14.0761 3.50021 14.2335 3.41044C15.5329 2.66918 17.4671 2.66923 18.7666 3.41049C18.924 3.5003 19.3292 3.77352 19.6671 4.0177C20.582 4.67897 21.1039 4.90032 21.7529 4.90238L22 4.90313V3.47617V2.04921L21.7529 2.04846C21.1039 2.04641 20.582 1.82505 19.6671 1.16379C19.3292 0.919597 18.924 0.646379 18.7666 0.55657C17.4671 -0.184691 15.5329 -0.184735 14.2335 0.556526C14.0761 0.64629 13.6739 0.918081 13.3396 1.16049C12.3405 1.88502 11.9116 2.04765 11 2.04765C10.0884 2.04765 9.67154 1.88975 8.6671 1.16379C7.91407 0.619535 7.58961 0.431845 7.10789 0.261814C6.38963 0.00826098 5.40319 -0.0696868 4.62679 0.065696ZM4.84529 4.45574C4.2949 4.55986 3.99098 4.71335 3.20117 5.286C2.51135 5.7862 2.03612 6.06098 1.58409 6.22093C1.18946 6.36064 0.632457 6.46387 0.273668 6.46387H0V8.03121V9.5985L0.360293 9.56978C0.747356 9.53888 1.19268 9.41442 1.50391 9.25019C1.61025 9.19405 1.96797 8.95186 2.29883 8.71196C3.56482 7.79397 4.27114 7.53409 5.5 7.53409C6.71494 7.53409 7.43892 7.79669 8.6582 8.67963C9.73814 9.46169 10.0069 9.56305 11 9.56305C11.579 9.56305 11.708 9.54936 11.9872 9.45839C12.4307 9.31387 12.6072 9.2134 13.2988 8.71196C14.5648 7.79397 15.2711 7.53409 16.5 7.53409C17.7289 7.53409 18.4352 7.79397 19.7012 8.71196C20.032 8.95186 20.3897 9.19405 20.4961 9.25019C20.8073 9.41442 21.2526 9.53888 21.6397 9.56978L22 9.5985V8.03121V6.46387H21.7263C21.3675 6.46387 20.8105 6.36064 20.4159 6.22093C19.9639 6.06098 19.4886 5.7862 18.7988 5.286C18.1072 4.78456 17.9307 4.68409 17.4872 4.53957C17.208 4.4486 17.079 4.43491 16.5 4.43491C15.9207 4.43491 15.7921 4.44856 15.5122 4.53975C15.0644 4.68566 14.9367 4.75888 14.1792 5.30371C12.9178 6.21108 12.2256 6.46405 11.0051 6.46374C9.77328 6.46342 9.06258 6.20234 7.79883 5.286C6.81012 4.56909 6.52511 4.45707 5.62891 4.43286C5.30986 4.42425 4.95726 4.43456 4.84529 4.45574ZM4.68669 9.16408C4.27793 9.25607 3.85413 9.48367 3.1671 9.98026C2.41407 10.5245 2.08961 10.7122 1.60789 10.8822C1.1978 11.027 0.575824 11.1456 0.225586 11.1459L0 11.1461V12.573V14L0.225586 13.9998C0.575824 13.9996 1.1978 13.8809 1.60789 13.7361C2.08961 13.5661 2.41407 13.3784 3.1671 12.8342C4.17154 12.1082 4.58838 11.9503 5.5 11.9503C6.41158 11.9503 6.84045 12.1129 7.83956 12.8375C8.17386 13.0799 8.57613 13.3517 8.73348 13.4414C10.0329 14.1827 11.9671 14.1827 13.2666 13.4414C13.424 13.3516 13.8292 13.0784 14.1671 12.8342C15.1715 12.1082 15.5884 11.9503 16.5 11.9503C17.4116 11.9503 17.8405 12.1129 18.8396 12.8375C19.584 13.3774 19.9097 13.5659 20.3921 13.7361C20.8022 13.8809 21.4242 13.9996 21.7744 13.9998L22 14V12.573V11.1461L21.7744 11.1459C21.4242 11.1456 20.8022 11.027 20.3921 10.8822C19.9097 10.712 19.584 10.5234 18.8396 9.98355C17.8405 9.25902 17.4116 9.09639 16.5 9.09639C15.5884 9.09639 15.1715 9.25429 14.1671 9.98026C13.8292 10.2244 13.424 10.4977 13.2666 10.5875C11.9671 11.3287 10.0329 11.3288 8.73348 10.5875C8.57613 10.4978 8.17386 10.226 7.83956 9.98355C7.14746 9.48162 6.72457 9.25696 6.29368 9.16221C5.91796 9.07962 5.05755 9.0806 4.68669 9.16408Z" fill="#1E321E"/>
</svg>
