<svg width="18" height="20" viewBox="0 0 18 20" fill="none" xmlns="http://www.w3.org/2000/svg">
<path fill-rule="evenodd" clip-rule="evenodd" d="M4.7824 1.12987C2.5401 1.74958 0.652949 2.27814 0.588729 2.30451C0.440407 2.36534 0.298397 2.55041 0.245932 2.75118C0.193665 2.95137 0.0957174 3.95891 0.0408858 4.86089C-0.014222 5.76685 -0.0134724 7.77533 0.042227 8.55288C0.24183 11.3388 0.821388 13.4348 1.79238 14.882C2.88886 16.5162 4.52134 17.9735 6.3741 18.972C7.27468 19.4574 8.65939 20 8.99734 20C9.21895 20 10.0548 19.7082 10.8711 19.346C12.9314 18.4315 14.961 16.732 16.2023 14.882C17.1733 13.4348 17.7528 11.3388 17.9524 8.55288C18.0442 7.27143 17.9994 5.06678 17.8503 3.53255C17.7649 2.65355 17.698 2.45406 17.4454 2.32467C17.2813 2.24067 9.10262 -0.00355103 8.97355 4.21962e-06C8.91071 0.00176231 7.02466 0.510202 4.7824 1.12987ZM13.2736 5.66551C13.3862 5.69649 13.5379 5.81409 13.8371 6.10245C14.0624 6.31948 14.2835 6.5562 14.3287 6.62851C14.4279 6.78756 14.4379 7.08218 14.3495 7.24709C14.2584 7.41723 8.60188 12.9962 8.4721 13.044C8.31825 13.1006 8.11123 13.095 7.96058 13.0303C7.79731 12.9601 4.24257 9.43009 4.18691 9.28288C4.06695 8.96552 4.18261 8.72384 4.69144 8.22873C5.20965 7.72447 5.42823 7.64031 5.77979 7.80971C5.88069 7.85832 6.36412 8.30729 7.08348 9.02041L8.22677 10.1539L10.4759 7.93048C12.961 5.47388 12.8636 5.55276 13.2736 5.66551Z" fill="#1E321E"/>
</svg>
