<svg width="22" height="22" viewBox="0 0 22 22" fill="none" xmlns="http://www.w3.org/2000/svg">
<path fill-rule="evenodd" clip-rule="evenodd" d="M0 1.09533V2.19065L1.10279 2.20213L2.20558 2.2136L4.07861 6.16844C5.10878 8.34357 5.99795 10.2236 6.05459 10.3462L6.15755 10.5691L5.38487 11.895C4.69706 13.0753 4.60141 13.2632 4.51379 13.6059C4.28208 14.5118 4.46961 15.2652 5.07522 15.8616C5.20894 15.9933 5.43365 16.1625 5.57455 16.2377C6.10079 16.5182 5.70042 16.504 13.0957 16.5047L19.8101 16.5053V15.4093V14.3132H13.4169C6.40688 14.3132 6.83256 14.3291 6.83256 14.0674C6.83256 14.0058 7.05008 13.5435 7.31599 13.04L7.79939 12.1246L12.0751 12.1116L16.3509 12.0986L16.6302 12.0031C17.1301 11.832 17.4985 11.5374 17.7618 11.0981C17.8425 10.9634 18.7741 9.28639 19.8319 7.37152C20.8898 5.45664 21.7901 3.85124 21.8327 3.80396C22.0208 3.59485 22.0528 3.2347 21.9158 2.86849C21.8181 2.60715 21.6287 2.40363 21.3786 2.29102C21.2153 2.21743 20.7946 2.21305 12.9113 2.20234L4.61597 2.19104L4.12356 1.09558L3.63114 8.59652e-05L1.81557 4.29826e-05L0 0V1.09533ZM5.92916 17.7207C4.77359 18.1148 4.14264 19.3516 4.5152 20.4923C4.75567 21.2287 5.47898 21.8413 6.26258 21.9724C7.38015 22.1593 8.50864 21.3771 8.74748 20.2501C8.82852 19.8676 8.82444 19.6732 8.7275 19.294C8.52995 18.5214 7.94571 17.9166 7.17926 17.6914C6.8332 17.5898 6.27474 17.6028 5.92916 17.7207ZM16.93 17.7207C15.7744 18.1148 15.1435 19.3516 15.5161 20.4923C15.7565 21.2287 16.4798 21.8413 17.2634 21.9724C18.381 22.1593 19.5095 21.3771 19.7483 20.2501C19.8294 19.8676 19.8253 19.6732 19.7283 19.294C19.5308 18.5214 18.9466 17.9166 18.1801 17.6914C17.834 17.5898 17.2756 17.6028 16.93 17.7207Z" fill="#1E321E"/>
</svg>
