<svg width="22" height="22" viewBox="0 0 22 22" fill="none" xmlns="http://www.w3.org/2000/svg">
<path fill-rule="evenodd" clip-rule="evenodd" d="M10.4559 0.0591337C10.0636 0.169274 9.83363 0.307078 9.01209 0.924341C7.97773 1.70145 7.77147 1.82728 7.39215 1.91269C7.22434 1.95042 6.63326 2.00542 6.07866 2.0348C4.62633 2.11185 4.26515 2.22519 3.71408 2.77706C3.2936 3.19813 3.18464 3.4593 2.87838 4.78071C2.86364 4.84427 2.84963 4.90506 2.83621 4.96329C2.70247 5.54351 2.62723 5.86995 2.47828 6.15721C2.28668 6.52673 1.97311 6.8314 1.25617 7.52799C1.20028 7.5823 1.14194 7.63898 1.08101 7.69827C0.389592 8.37109 0.212944 8.62822 0.0757136 9.16166C-0.0970847 9.83346 -0.000418625 10.2394 0.641728 11.539C0.916922 12.0958 1.17511 12.6641 1.21549 12.8018C1.31573 13.1436 1.30753 13.5034 1.1746 14.5902C1.11218 15.1007 1.0608 15.6342 1.06043 15.7756C1.05832 16.5816 1.55838 17.3983 2.29069 17.7847C2.45816 17.8731 2.94585 18.0954 3.3744 18.2789C4.24879 18.6531 4.47531 18.7753 4.73359 19.0115C4.832 19.1016 5.2072 19.6265 5.56737 20.1781C6.39607 21.4473 6.69995 21.735 7.40947 21.9221C7.9748 22.0712 8.24573 22.0305 9.65378 21.5852C10.4566 21.3313 10.493 21.3243 11.0059 21.3251C11.5268 21.3259 11.545 21.3296 12.5414 21.6418C13.9155 22.0722 14.3384 22.0933 15.0223 21.7658C15.4787 21.5472 15.7592 21.2326 16.474 20.138C17.2962 18.8789 17.3337 18.846 18.5401 18.3241C19.0222 18.1155 19.5536 17.8727 19.7211 17.7845C20.3595 17.448 20.8183 16.7962 20.92 16.0809C20.9632 15.7774 20.9529 15.5816 20.8449 14.6492C20.7103 13.4877 20.6968 13.1631 20.7707 12.8729C20.7967 12.7707 21.0648 12.1755 21.3664 11.55C21.8108 10.6286 21.9253 10.3492 21.9698 10.077C22.0474 9.60223 21.9756 9.14101 21.7522 8.67956C21.6009 8.36705 21.5024 8.24883 20.9338 7.69794C20.8798 7.6456 20.8278 7.59528 20.7778 7.54683C20.0426 6.8353 19.7253 6.52822 19.5322 6.15522C19.3856 5.87202 19.3106 5.55083 19.1787 4.98577C19.1669 4.93509 19.1546 4.88244 19.1417 4.82769C19.006 4.24909 18.8622 3.68255 18.8222 3.56879C18.6525 3.08673 18.1908 2.5668 17.7322 2.34141C17.3402 2.14875 16.9972 2.09013 15.9331 2.03392C14.8878 1.97869 14.4734 1.91413 14.1752 1.76012C14.0792 1.71046 13.6104 1.37558 13.1335 1.01592C12.2276 0.332698 11.9589 0.170574 11.5499 0.0603405C11.2532 -0.0196323 10.7384 -0.0201875 10.4559 0.0591337ZM6.0502 14.112L7.68979 13.2654C7.68979 13.2654 7.87997 15.2222 10.6366 15.4012C14.1636 15.6303 13.0667 10.9545 9.67208 11.687V10.1345C14.6526 10.3055 12.6065 4.19625 8.00611 8.5688C7.28269 7.92878 6.68025 7.494 6.68025 7.494C6.68025 7.494 7.97175 5.31264 11.0556 4.95247C13.5068 4.66639 15.1753 6.31521 15.2524 7.94621C15.3744 10.0423 13.1504 10.7965 13.1504 10.7965C13.1504 10.7965 15.5402 11.1854 15.9205 13.5521C16.2268 15.4577 14.1669 17.1925 10.714 17.0748C6.59988 16.941 6.0502 14.112 6.0502 14.112Z" fill="#1E321E"/>
</svg>
