<svg width="17" height="21" viewBox="0 0 17 21" fill="none" xmlns="http://www.w3.org/2000/svg">
<path fill-rule="evenodd" clip-rule="evenodd" d="M8.18696 0.0867593C8.07787 0.134489 7.91832 0.246037 7.83241 0.334643C7.63243 0.541035 5.41838 3.47374 4.55772 4.67228C1.41484 9.04903 0.00457466 11.7901 2.13817e-05 13.5309C-0.0082024 16.7063 2.35658 19.5879 5.81442 20.616C7.85796 21.2235 10.1324 21.1064 12.1148 20.2916C14.0997 19.4758 15.7356 17.9027 16.4748 16.0988C16.9377 14.9693 17.1109 13.6965 16.929 12.7611C16.5891 11.0137 15.1759 8.45801 12.4822 4.7196C11.4805 3.32928 9.30651 0.454686 9.13525 0.29389C8.95739 0.126938 8.6894 -4.10304e-05 8.51498 9.94553e-09C8.44366 9.94553e-09 8.2961 0.0390704 8.18696 0.0867593ZM15.0098 12.9335C15.4249 13.0433 15.7005 13.3842 15.7018 13.7895C15.7051 14.7694 15.1584 16.1742 14.3849 17.1733C13.7168 18.0363 12.3041 19.0766 11.7011 19.1496C11.0608 19.2271 10.4928 18.7242 10.5567 18.1363C10.5903 17.8274 10.7558 17.6489 11.3165 17.3166C12.6734 16.5125 13.4667 15.36 13.658 13.9151C13.6862 13.702 13.7398 13.4709 13.777 13.4016C13.9966 12.9928 14.5048 12.7998 15.0098 12.9335Z" fill="#1E321E"/>
</svg>
