<svg width="1" height="1" viewBox="0 0 1 1" fill="none" xmlns="http://www.w3.org/2000/svg">
<path d="M0.501553 0.00173976C0.333428 0.0202301 0.197189 0.0785457 0.0960239 0.175833L0.0612394 0.208831L0.122982 0.249794C0.156897 0.272267 0.187623 0.29218 0.191101 0.294456C0.197189 0.298154 0.198928 0.297585 0.214871 0.285637C0.289657 0.229313 0.381257 0.186074 0.451985 0.173842C0.540395 0.158765 0.615762 0.183798 0.646778 0.238416C0.654315 0.25207 0.655184 0.256053 0.655184 0.280517C0.655184 0.304127 0.654315 0.309532 0.647068 0.323471C0.615182 0.387476 0.517786 0.428155 0.39662 0.428439H0.366763V0.492729C0.366763 0.553035 0.367053 0.557018 0.371981 0.555027C0.374589 0.553889 0.397779 0.552182 0.423288 0.551613C0.476044 0.549906 0.505031 0.553889 0.544454 0.568112C0.606196 0.590016 0.655184 0.634677 0.674316 0.685881C0.679244 0.698967 0.680693 0.709492 0.680983 0.729973C0.680983 0.765816 0.674026 0.783453 0.650546 0.807917C0.604457 0.856276 0.521844 0.872776 0.406765 0.856561C0.325891 0.844898 0.264729 0.819296 0.220378 0.777764C0.19487 0.754153 0.179796 0.733103 0.1711 0.70807C0.167332 0.698113 0.163854 0.689295 0.163274 0.688441C0.161824 0.687019 0.00471462 0.751877 0.000366564 0.75586C-0.00311188 0.758989 0.0189183 0.80365 0.0345713 0.824985C0.050804 0.846889 0.0928353 0.886999 0.118344 0.90492C0.165593 0.937634 0.246177 0.969494 0.314586 0.98258C0.473435 1.0133 0.663591 1.00278 0.792003 0.95584C0.829397 0.942185 0.882443 0.915445 0.906212 0.897809C0.948533 0.866802 0.980709 0.825554 0.993463 0.786013C1.00999 0.735663 0.994623 0.668244 0.953751 0.61192C0.915198 0.55844 0.836643 0.510934 0.75461 0.491306C0.737508 0.487324 0.723304 0.483341 0.723304 0.482488C0.723304 0.481634 0.73142 0.477936 0.741566 0.474238C0.795772 0.454041 0.853166 0.416492 0.883023 0.382071C0.902444 0.359314 0.920996 0.324325 0.925923 0.300998C0.930561 0.279663 0.929692 0.236709 0.924764 0.215089C0.914329 0.171851 0.878385 0.119224 0.836353 0.0862262C0.784467 0.0455476 0.722144 0.0190922 0.647938 0.00600675C0.615762 0.000601893 0.534888 -0.0019583 0.501553 0.00173976Z" fill="black"/>
</svg>
