<svg width="1" height="1" viewBox="0 0 1 1" fill="none" xmlns="http://www.w3.org/2000/svg">
<path d="M0.358742 0.0150725C0.355646 0.0234783 0.273702 0.238261 0.176513 0.492174C0.0795617 0.746377 0 0.955942 0 0.957971C0 0.96029 0.00595522 0.970435 0.0133397 0.981159L0.0266794 1L0.0895665 0.99942L0.152692 0.998551L0.208909 0.846957L0.265126 0.695652L0.421391 0.696232L0.577656 0.697101L0.639828 0.845797C0.673892 0.927536 0.702954 0.995652 0.704145 0.997101C0.705812 0.99913 0.7606 0.99971 0.853263 0.99942L1 0.998551L0.788471 0.5L0.576703 0.00144932L0.470462 0.000579756L0.364459 4.56348e-08L0.358742 0.0150725ZM0.478323 0.454203L0.535493 0.607246L0.418533 0.608116C0.354454 0.608406 0.301334 0.608116 0.300619 0.607536C0.299428 0.605797 0.417342 0.301449 0.419485 0.301449C0.4202 0.301449 0.446641 0.370145 0.478323 0.454203Z" fill="black"/>
</svg>
