<svg width="1" height="1" viewBox="0 0 1 1" fill="none" xmlns="http://www.w3.org/2000/svg">
<path d="M0 0.5V1H0.171745H0.34349L0.344044 0.782609L0.344875 0.564928L0.517729 0.782609L0.690582 1H0.83795H0.985042L0.992521 0.984058C0.996676 0.975072 1 0.964928 1 0.961159C1 0.956522 0.938227 0.875942 0.797507 0.696812C0.68615 0.555072 0.59446 0.437681 0.593629 0.435942C0.593075 0.433913 0.658449 0.335362 0.739335 0.217101L0.88615 0.00144932L0.788643 0.000579756C0.698615 4.56348e-08 0.691136 0.000289901 0.686704 0.00492758C0.684211 0.00782613 0.60831 0.112464 0.518006 0.237681C0.427701 0.362899 0.351524 0.467826 0.348753 0.471015C0.34349 0.476522 0.34349 0.472174 0.34349 0.238261V4.56348e-08H0.171745H0V0.5Z" fill="black"/>
</svg>
