<svg width="1" height="1" viewBox="0 0 1 1" fill="none" xmlns="http://www.w3.org/2000/svg">
<path d="M0 0.5V1H0.0723861H0.144772V0.717971C0.14504 0.494203 0.145576 0.437101 0.148257 0.44087C0.150134 0.443478 0.213673 0.569565 0.289544 0.721159C0.392493 0.926957 0.428418 0.995942 0.430563 0.993333C0.432172 0.991304 0.495979 0.866667 0.572118 0.715942C0.648525 0.565217 0.712064 0.44087 0.713405 0.43913C0.714745 0.437681 0.715818 0.546957 0.715818 0.718261V1H0.857909H1V0.5V4.56348e-08H0.883646H0.76756L0.646917 0.236522C0.580697 0.366667 0.525469 0.473333 0.524129 0.473333C0.522788 0.473623 0.468633 0.367246 0.403485 0.237101L0.285523 0.000289901L0.142895 4.56348e-08H0V0.5Z" fill="black"/>
</svg>
