<svg width="3366" height="352" viewBox="0 0 3366 352" fill="none" xmlns="http://www.w3.org/2000/svg">
<path fill-rule="evenodd" clip-rule="evenodd" d="M0 266.077L57.2489 241.57C57.2489 241.57 63.8893 298.212 160.141 303.392C283.293 310.025 244.992 174.679 126.463 195.88V150.943C300.365 155.893 228.923 -20.9472 68.2934 105.621C43.0341 87.095 21.999 74.5099 21.999 74.5099C21.999 74.5099 67.0938 11.3681 174.771 0.942445C260.36 -7.33826 318.615 40.3885 321.31 87.5997C325.568 148.272 247.914 170.104 247.914 170.104C247.914 170.104 331.356 181.362 344.637 249.868C355.33 305.029 283.408 355.243 162.844 351.836C19.1929 347.964 0 266.077 0 266.077ZM411.255 345.661V1.16596H660.45V61.0776H518.054V150.943H642.654V210.859H518.054V285.745H660.45V345.661H411.255ZM786.4 345.661H731.648V1.16596H838.448L927.446 165.922L1018.26 1.16596H1105.44V345.661H998.644V150.943L891.849 345.661L786.4 150.943V345.661ZM1301.24 1.16596L1158.84 345.661H1230.04L1336.84 107.892L1443.64 345.661H1568.23L1408.04 0.477399L1301.24 1.16596ZM1906.43 61.0776V1.16596H2226.82V61.0776H2120.02V345.661H2013.23V61.0776H1906.43ZM2582.81 1.16596V345.661H2707.41V195.88L2832.01 345.661H2938.81L2945.24 331.837L2956.61 345.661H3010.01L3057.42 240.813H3188L3241.4 345.661H3366L3188 1.16596H3099L2945.24 331.837L2796.41 150.943L2903.21 1.16596H2832.01L2707.41 165.922V1.16596H2582.81ZM3170.89 210.859H3071.47L3122.04 103.707L3170.89 210.859ZM1603.83 345.661V1.16596H1853.03V61.0776H1713.87V150.943H1835.23V210.859H1713.87V285.745H1853.03V345.661H1603.83ZM2281.65 345.661V1.16596H2529.42V61.0776H2387.02V150.943H2513.5V210.859H2387.02V285.745H2529.42V345.661H2281.65Z" fill="black"/>
</svg>
