<svg width="1" height="1" viewBox="0 0 1 1" fill="none" xmlns="http://www.w3.org/2000/svg">
<path fill-rule="evenodd" clip-rule="evenodd" d="M0 0.755901L0.017008 0.686279C0.017008 0.686279 0.0189808 0.847193 0.0475761 0.861909C0.0841631 0.880753 0.0727843 0.496247 0.0375707 0.556477V0.428815C0.089235 0.442878 0.0680104 -0.0595091 0.0202892 0.30006C0.0127849 0.247429 0.00653565 0.211676 0.00653565 0.211676C0.00653565 0.211676 0.0199328 0.0322957 0.0519225 0.0026774C0.07735 -0.0208473 0.0946569 0.11474 0.0954575 0.248863C0.0967225 0.421227 0.0736524 0.48325 0.0736524 0.48325C0.0736524 0.48325 0.0984421 0.515233 0.102388 0.709852C0.105564 0.86656 0.0841973 1.00921 0.0483791 0.999534C0.00570199 0.988534 0 0.755901 0 0.755901ZM0.122179 0.981992V0.00331238H0.196212V0.173516H0.153908V0.428815H0.190925V0.599031H0.153908V0.811776H0.196212V0.981992H0.122179ZM0.23363 0.981992H0.217364V0.00331238H0.249093L0.275534 0.471369L0.302513 0.00331238H0.328414V0.981992H0.296686V0.428815L0.264958 0.981992L0.23363 0.428815V0.981992ZM0.386583 0.00331238L0.344278 0.981992H0.365431L0.39716 0.306511L0.428889 0.981992H0.465903L0.418313 0.00135624L0.386583 0.00331238ZM0.566378 0.173516V0.00331238H0.661563V0.173516H0.629834V0.981992H0.598108V0.173516H0.566378ZM0.767323 0.00331238V0.981992H0.80434V0.556477L0.841358 0.981992H0.873087L0.874997 0.942719L0.878375 0.981992H0.894239L0.908324 0.684128H0.947118L0.962983 0.981992H1L0.947118 0.00331238H0.920677L0.874997 0.942719L0.830781 0.428815L0.86251 0.00331238H0.841358L0.80434 0.471369V0.00331238H0.767323ZM0.942035 0.599031H0.912498L0.927522 0.294622L0.942035 0.599031ZM0.476479 0.981992V0.00331238H0.550514V0.173516H0.509171V0.428815H0.545226V0.599031H0.509171V0.811776H0.550514V0.981992H0.476479ZM0.677852 0.981992V0.00331238H0.751462V0.173516H0.709156V0.428815H0.746732V0.599031H0.709156V0.811776H0.751462V0.981992H0.677852Z" fill="black"/>
</svg>
