<?xml version="1.0" standalone="no"?>
<!DOCTYPE svg PUBLIC "-//W3C//DTD SVG 20010904//EN"
 "http://www.w3.org/TR/2001/REC-SVG-20010904/DTD/svg10.dtd">
<svg version="1.0" xmlns="http://www.w3.org/2000/svg"
 width="349.000000pt" height="352.000000pt" viewBox="0 0 349.000000 352.000000"
 preserveAspectRatio="xMidYMid meet">

<g transform="translate(0.000000,352.000000) scale(0.100000,-0.100000)"
fill="#000000" stroke="none">
<path d="M1735 3510 c-580 -65 -1050 -270 -1399 -612 l-120 -116 213 -144
c117 -79 223 -149 235 -157 21 -13 27 -11 82 31 258 198 574 350 818 393 305
53 565 -35 672 -227 26 -48 29 -62 29 -148 0 -83 -3 -102 -28 -151 -110 -225
-446 -368 -864 -369 l-103 0 0 -226 c0 -212 1 -226 18 -219 9 4 89 10 177 12
182 6 282 -8 418 -58 213 -77 382 -234 448 -414 17 -46 22 -83 23 -155 0 -126
-24 -188 -105 -274 -159 -170 -444 -228 -841 -171 -279 41 -490 131 -643 277
-88 83 -140 157 -170 245 -13 35 -25 66 -27 69 -5 5 -547 -223 -562 -237 -12
-11 64 -168 118 -243 56 -77 201 -218 289 -281 163 -115 441 -227 677 -273
548 -108 1204 -71 1647 94 129 48 312 142 394 204 146 109 257 254 301 393 57
177 4 414 -137 612 -133 188 -404 355 -687 424 -59 14 -108 28 -108 31 0 3 28
16 63 29 187 71 385 203 488 324 67 80 131 203 148 285 16 75 13 226 -4 302
-36 152 -160 337 -305 453 -179 143 -394 236 -650 282 -111 19 -390 28 -505
15z"/>
</g>
</svg>
