<?xml version="1.0" standalone="no"?>
<!DOCTYPE svg PUBLIC "-//W3C//DTD SVG 20010904//EN"
 "http://www.w3.org/TR/2001/REC-SVG-20010904/DTD/svg10.dtd">
<svg version="1.0" xmlns="http://www.w3.org/2000/svg"
 width="412.000000pt" height="346.000000pt" viewBox="0 0 412.000000 346.000000"
 preserveAspectRatio="xMidYMid meet">

<g transform="translate(0.000000,346.000000) scale(0.100000,-0.100000)"
fill="#000000" stroke="none">
<path d="M735 1738 c-389 -942 -710 -1719 -712 -1726 -4 -10 67 -12 351 -10
l357 3 531 1183 c292 650 534 1182 537 1182 3 0 245 -532 537 -1183 l530
-1182 622 -3 c342 -1 622 -1 622 1 0 2 -359 777 -798 1723 l-798 1719 -535 3
-536 2 -708 -1712z"/>
</g>
</svg>
