<svg width="1013" height="291" viewBox="0 0 1013 291" fill="none" xmlns="http://www.w3.org/2000/svg">
<path fill-rule="evenodd" clip-rule="evenodd" d="M0.362305 196.14C52.7401 196.14 105.118 227.566 136.544 227.566C167.971 227.566 194.159 206.74 246.537 206.74C299.448 206.74 319.866 217.091 367.675 217.091C414.145 217.091 497.95 196.14 560.803 196.14C623.657 196.14 702.223 227.566 775.552 227.566C848.881 227.566 885.544 196.14 969.349 196.14C1053.15 196.14 989.978 196.14 989.978 196.14V290.42H0.362305V196.14Z" fill="white"/>
<path fill-rule="evenodd" clip-rule="evenodd" d="M73.3869 147.836C47.401 140.042 20.2682 131.903 0.362305 131.107V190.14C29.8778 190.14 59.3934 200.119 85.1597 208.831C105.118 215.578 122.827 221.566 136.544 221.566C150.261 221.566 162.981 217.598 177.316 213.126C195.823 207.353 217.022 200.74 246.537 200.74C273.663 200.74 292.249 203.46 310.363 206.112C327.583 208.633 344.376 211.091 367.675 211.091C389.159 211.091 418.624 206.613 450.308 201.797C487.157 196.197 527.008 190.14 560.803 190.14C591.019 190.14 624.867 197.403 660.019 204.946C697.987 213.093 737.475 221.566 775.552 221.566C810.993 221.566 837.869 214.225 865.642 206.639C895.333 198.53 926.048 190.14 969.349 190.14H989.978V131.107L970.61 131.107C927.309 131.107 896.593 139.496 866.902 147.606C839.129 155.192 812.253 162.534 776.813 162.534C738.736 162.534 699.247 154.06 661.279 145.913C626.128 138.37 592.28 131.107 562.063 131.107C528.269 131.107 488.418 137.163 451.569 142.764C419.884 147.579 390.42 152.057 368.936 152.057C345.637 152.057 328.843 149.57 311.624 147.019C293.51 144.336 274.924 141.583 247.798 141.583C218.283 141.583 197.083 148.235 178.577 154.043C164.241 158.542 151.522 162.534 137.804 162.534C122.385 162.534 98.4182 155.344 73.3869 147.836ZM989.978 284.42H0.362305V288.418H989.978V284.42Z" fill="white"/>
<path fill-rule="evenodd" clip-rule="evenodd" d="M0.362305 93.0459L17.2085 84.4759C17.2085 84.4759 19.1625 104.283 47.4857 106.095C83.7245 108.415 72.4543 61.0844 37.5756 68.4984V52.7843C88.7482 54.5151 67.7255 -7.32514 20.4584 36.9353C13.0256 30.4568 6.83578 26.0558 6.83578 26.0558C6.83578 26.0558 20.1055 3.97539 51.7908 0.329569C76.9762 -2.56616 94.1187 14.1237 94.9116 30.6333C96.1647 51.8501 73.314 59.4847 73.314 59.4847C73.314 59.4847 97.8678 63.4217 101.776 87.378C104.922 106.667 83.7586 124.227 48.2811 123.036C6.01005 121.682 0.362305 93.0459 0.362305 93.0459ZM121.379 120.876V0.40773H194.708V21.3586H152.806V52.7843H189.471V73.7364H152.806V99.924H194.708V120.876H121.379ZM231.77 120.876H215.659V0.40773H247.086L273.274 58.0223L299.997 0.40773H325.652V120.876H294.225V52.7843L262.8 120.876L231.77 52.7843V120.876ZM383.268 0.40773L341.365 120.876H362.316L393.743 37.7295L425.17 120.876H461.833L414.694 0.166944L383.268 0.40773ZM561.351 21.3586V0.40773H655.632V21.3586H624.205V120.876H592.778V21.3586H561.351ZM760.386 0.40773V120.876H797.051V68.4984L833.715 120.876H865.142L867.033 116.042L870.38 120.876H886.093L900.046 84.2112H938.47L954.184 120.876H990.848L938.47 0.40773H912.281L867.033 116.042L823.24 52.7843L854.666 0.40773H833.715L797.051 58.0223V0.40773H760.386ZM933.434 73.7364H904.179L919.061 36.2659L933.434 73.7364ZM472.31 120.876V0.40773H545.638V21.3586H504.69V52.7843H540.4V73.7364H504.69V99.924H545.638V120.876H472.31ZM671.764 120.876V0.40773H744.673V21.3586H702.772V52.7843H739.991V73.7364H702.772V99.924H744.673V120.876H671.764Z" fill="white"/>
<mask id="mask0_631_3357" style="mask-type:alpha" maskUnits="userSpaceOnUse" x="0" y="0" width="991" height="124">
<path fill-rule="evenodd" clip-rule="evenodd" d="M0.362305 93.0459L17.2085 84.4759C17.2085 84.4759 19.1625 104.283 47.4857 106.095C83.7245 108.415 72.4543 61.0844 37.5756 68.4984V52.7843C88.7482 54.5151 67.7255 -7.32514 20.4584 36.9353C13.0256 30.4568 6.83578 26.0558 6.83578 26.0558C6.83578 26.0558 20.1055 3.97539 51.7908 0.329569C76.9762 -2.56616 94.1187 14.1237 94.9116 30.6333C96.1647 51.8501 73.314 59.4847 73.314 59.4847C73.314 59.4847 97.8678 63.4217 101.776 87.378C104.922 106.667 83.7586 124.227 48.2811 123.036C6.01005 121.682 0.362305 93.0459 0.362305 93.0459ZM121.379 120.876V0.40773H194.708V21.3586H152.806V52.7843H189.471V73.7364H152.806V99.924H194.708V120.876H121.379ZM231.77 120.876H215.659V0.40773H247.086L273.274 58.0223L299.997 0.40773H325.652V120.876H294.225V52.7843L262.8 120.876L231.77 52.7843V120.876ZM383.268 0.40773L341.365 120.876H362.316L393.743 37.7295L425.17 120.876H461.833L414.694 0.166944L383.268 0.40773ZM561.351 21.3586V0.40773H655.632V21.3586H624.205V120.876H592.778V21.3586H561.351ZM760.386 0.40773V120.876H797.051V68.4984L833.715 120.876H865.142L867.033 116.042L870.38 120.876H886.093L900.046 84.2112H938.47L954.184 120.876H990.848L938.47 0.40773H912.281L867.033 116.042L823.24 52.7843L854.666 0.40773H833.715L797.051 58.0223V0.40773H760.386ZM933.434 73.7364H904.179L919.061 36.2659L933.434 73.7364ZM472.31 120.876V0.40773H545.638V21.3586H504.69V52.7843H540.4V73.7364H504.69V99.924H545.638V120.876H472.31ZM671.764 120.876V0.40773H744.673V21.3586H702.772V52.7843H739.991V73.7364H702.772V99.924H744.673V120.876H671.764Z" fill="#FF0800"/>
</mask>
<g mask="url(#mask0_631_3357)">
<path fill-rule="evenodd" clip-rule="evenodd" d="M12.6217 57.2531C39.2468 67.5338 81.6074 44.5154 112.267 39.4652C143.948 34.415 178.283 60.0139 202.895 59.4618C233.036 58.7861 327.5 53.2089 342.308 49.611C360.682 45.326 451.963 68.1994 478.295 65.5495C505 63.0244 577.128 73.9984 625.823 63.3849C674.518 53.6464 727.182 32.0021 761.935 35.9707C796.438 39.9392 886.727 66.6311 919.984 66.9917C953.227 67.3522 994.557 60.2976 994.557 60.2976V-18.2691H-11.0938V49.8215C-11.0938 49.8215 -8.97963 48.9126 12.6217 57.2531Z" fill="white"/>
</g>
</svg>
