<svg width="804" height="125" viewBox="0 0 804 125" fill="none" xmlns="http://www.w3.org/2000/svg">
<path fill-rule="evenodd" clip-rule="evenodd" d="M0 0C31 1.24008 84.096 24.929 109.024 24.929C133.953 24.929 154.727 8.31 196.275 8.31C238.246 8.31 254.442 16.619 292.366 16.619C329.228 16.619 395.705 0 445.562 0C495.42 0 557.742 24.929 615.909 24.929C674.076 24.929 703.159 0 769.636 0C836.112 0 785 -3.8147e-06 785 -3.8147e-06V124.785H0V0Z" fill="#41E241"/>
<path fill-rule="evenodd" clip-rule="evenodd" d="M0 50C41.548 50 83.096 74.928 108.024 74.928C132.953 74.928 153.727 58.408 195.275 58.408C237.246 58.408 253.442 66.619 291.366 66.619C328.228 66.619 394.705 50 444.562 50C494.42 50 556.742 74.928 614.909 74.928C673.076 74.928 702.159 50 768.636 50C835.112 50 785 50 785 50V124.786H0V50Z" fill="#005A2A"/>
</svg>
