<svg width="804" height="229" viewBox="0 0 804 229" fill="none" xmlns="http://www.w3.org/2000/svg">
<path fill-rule="evenodd" clip-rule="evenodd" d="M0 104C31 105.24 84.096 128.929 109.024 128.929C133.953 128.929 154.727 112.31 196.275 112.31C238.246 112.31 254.442 120.619 292.366 120.619C329.228 120.619 395.705 104 445.562 104C495.42 104 557.742 128.929 615.909 128.929C674.076 128.929 703.159 104 769.636 104C836.112 104 785 104 785 104V228.785H0V104Z" fill="#41E241"/>
<path fill-rule="evenodd" clip-rule="evenodd" d="M0 154C41.548 154 83.096 178.928 108.024 178.928C132.953 178.928 153.727 162.408 195.275 162.408C237.246 162.408 253.442 170.619 291.366 170.619C328.228 170.619 394.705 154 444.562 154C494.42 154 556.742 178.928 614.909 178.928C673.076 178.928 702.159 154 768.636 154C835.112 154 785 154 785 154V228.786H0V154Z" fill="#005A2A"/>
<path fill-rule="evenodd" clip-rule="evenodd" d="M0 73.8074L13.363 67.0094C13.363 67.0094 14.913 82.7214 37.38 84.1584C66.126 85.9984 57.186 48.4544 29.519 54.3354V41.8704C70.111 43.2434 53.435 -5.81057 15.941 29.2984C10.045 24.1594 5.135 20.6684 5.135 20.6684C5.135 20.6684 15.661 3.15343 40.795 0.261426C60.773 -2.03557 74.371 11.2034 75 24.2994C75.994 41.1294 57.868 47.1854 57.868 47.1854C57.868 47.1854 77.345 50.3084 80.445 69.3114C82.941 84.6124 66.153 98.5414 38.011 97.5964C4.48 96.5224 0 73.8074 0 73.8074ZM95.995 95.8834V0.323427H154.162V16.9424H120.924V41.8704H150.008V58.4904H120.924V79.2634H154.162V95.8834H95.995ZM183.561 95.8834H170.781V0.323427H195.71L216.484 46.0254L237.681 0.323427H258.032V95.8834H233.103V41.8704L208.175 95.8834L183.561 41.8704V95.8834ZM303.735 0.323427L270.496 95.8834H287.115L312.044 29.9284L336.973 95.8834H366.056L328.663 0.132426L303.735 0.323427ZM444.997 16.9424V0.323427H519.784V16.9424H494.855V95.8834H469.926V16.9424H444.997ZM602.879 0.323427V95.8834H631.963V54.3354L661.046 95.8834H685.975L687.475 92.049L690.13 95.8834H702.594L713.662 66.7994H744.142L756.607 95.8834H785.69L744.142 0.323427H723.368L687.475 92.049L652.737 41.8704L677.665 0.323427H661.046L631.963 46.0254V0.323427H602.879ZM740.147 58.4904H716.941L728.746 28.7674L740.147 58.4904ZM374.366 95.8834V0.323427H432.533V16.9424H400.051V41.8704H428.378V58.4904H400.051V79.2634H432.533V95.8834H374.366ZM532.581 95.8834V0.323427H590.415V16.9424H557.177V41.8704H586.701V58.4904H557.177V79.2634H590.415V95.8834H532.581Z" fill="#F13634"/>
<mask id="mask0_580_3483" style="mask-type:alpha" maskUnits="userSpaceOnUse" x="0" y="0" width="786" height="98">
<path fill-rule="evenodd" clip-rule="evenodd" d="M0 73.8074L13.363 67.0094C13.363 67.0094 14.913 82.7214 37.38 84.1584C66.126 85.9984 57.186 48.4544 29.519 54.3354V41.8704C70.111 43.2434 53.435 -5.81057 15.941 29.2984C10.045 24.1594 5.135 20.6684 5.135 20.6684C5.135 20.6684 15.661 3.15343 40.795 0.261426C60.773 -2.03557 74.371 11.2034 75 24.2994C75.994 41.1294 57.868 47.1854 57.868 47.1854C57.868 47.1854 77.345 50.3084 80.445 69.3114C82.941 84.6124 66.153 98.5414 38.011 97.5964C4.48 96.5224 0 73.8074 0 73.8074ZM95.995 95.8834V0.323427H154.162V16.9424H120.924V41.8704H150.008V58.4904H120.924V79.2634H154.162V95.8834H95.995ZM183.561 95.8834H170.781V0.323427H195.71L216.484 46.0254L237.681 0.323427H258.032V95.8834H233.103V41.8704L208.175 95.8834L183.561 41.8704V95.8834ZM303.735 0.323427L270.496 95.8834H287.115L312.044 29.9284L336.973 95.8834H366.056L328.663 0.132426L303.735 0.323427ZM444.997 16.9424V0.323427H519.784V16.9424H494.855V95.8834H469.926V16.9424H444.997ZM602.879 0.323427V95.8834H631.963V54.3354L661.046 95.8834H685.975L687.475 92.049L690.13 95.8834H702.594L713.662 66.7994H744.142L756.607 95.8834H785.69L744.142 0.323427H723.368L687.475 92.049L652.737 41.8704L677.665 0.323427H661.046L631.963 46.0254V0.323427H602.879ZM740.147 58.4904H716.941L728.746 28.7674L740.147 58.4904ZM374.366 95.8834V0.323427H432.533V16.9424H400.051V41.8704H428.378V58.4904H400.051V79.2634H432.533V95.8834H374.366ZM532.581 95.8834V0.323427H590.415V16.9424H557.177V41.8704H586.701V58.4904H557.177V79.2634H590.415V95.8834H532.581Z" fill="#FF0800"/>
</mask>
<g mask="url(#mask0_580_3483)">
<path fill-rule="evenodd" clip-rule="evenodd" d="M9.72701 45.417C30.847 53.572 64.449 35.313 88.769 31.307C113.9 27.301 141.136 47.607 160.659 47.169C184.568 46.633 259.5 42.209 271.246 39.355C285.821 35.956 358.229 54.1 379.116 51.998C400.3 49.995 457.514 58.7 496.141 50.281C534.768 42.556 576.543 25.387 604.11 28.535C631.479 31.683 703.1 52.856 729.48 53.142C755.85 53.428 788.634 47.832 788.634 47.832V-14.49H-9.08499V39.522C-9.08499 39.522 -7.40799 38.801 9.72701 45.417Z" fill="#FE8315"/>
</g>
</svg>
