<svg width="786" height="98" viewBox="0 0 786 98" fill="none" xmlns="http://www.w3.org/2000/svg">
<path fill-rule="evenodd" clip-rule="evenodd" d="M0 73.8074L13.363 67.0094C13.363 67.0094 14.913 82.7214 37.38 84.1584C66.126 85.9984 57.186 48.4544 29.519 54.3354V41.8704C70.111 43.2434 53.435 -5.81057 15.941 29.2984C10.045 24.1594 5.135 20.6684 5.135 20.6684C5.135 20.6684 15.661 3.15343 40.795 0.261426C60.773 -2.03557 74.371 11.2034 75 24.2994C75.994 41.1294 57.868 47.1854 57.868 47.1854C57.868 47.1854 77.345 50.3084 80.445 69.3114C82.941 84.6124 66.153 98.5414 38.011 97.5964C4.48 96.5224 0 73.8074 0 73.8074ZM95.995 95.8834V0.323427H154.162V16.9424H120.924V41.8704H150.008V58.4904H120.924V79.2634H154.162V95.8834H95.995ZM183.561 95.8834H170.781V0.323427H195.71L216.484 46.0254L237.681 0.323427H258.032V95.8834H233.103V41.8704L208.175 95.8834L183.561 41.8704V95.8834ZM303.735 0.323427L270.496 95.8834H287.115L312.044 29.9284L336.973 95.8834H366.056L328.663 0.132426L303.735 0.323427ZM444.997 16.9424V0.323427H519.784V16.9424H494.855V95.8834H469.926V16.9424H444.997ZM602.879 0.323427V95.8834H631.963V54.3354L661.046 95.8834H685.975L687.475 92.049L690.13 95.8834H702.594L713.662 66.7994H744.142L756.607 95.8834H785.69L744.142 0.323427H723.368L687.475 92.049L652.737 41.8704L677.665 0.323427H661.046L631.963 46.0254V0.323427H602.879ZM740.147 58.4904H716.941L728.746 28.7674L740.147 58.4904ZM374.366 95.8834V0.323427H432.533V16.9424H400.051V41.8704H428.378V58.4904H400.051V79.2634H432.533V95.8834H374.366ZM532.581 95.8834V0.323427H590.415V16.9424H557.177V41.8704H586.701V58.4904H557.177V79.2634H590.415V95.8834H532.581Z" fill="#F13634"/>
</svg>
